<mxfile host="app.diagrams.net" modified="2021-05-19T11:49:33.888Z" agent="5.0 (Windows NT 10.0; Win64; x64) AppleWebKit/537.36 (KHTML, like Gecko) Chrome/80.0.3987.106 Safari/537.36" etag="NFRnRsWM_ZJj5yoHPN-C" version="14.6.13" type="github">
  <diagram id="iYzqm7sgpaD0ObFjJksQ" name="第 1 页">
    <mxGraphModel dx="1038" dy="499" grid="1" gridSize="10" guides="1" tooltips="1" connect="1" arrows="1" fold="1" page="1" pageScale="1" pageWidth="827" pageHeight="1169" math="0" shadow="0">
      <root>
        <mxCell id="0" />
        <mxCell id="1" parent="0" />
        <mxCell id="4VNX95Qdlnc_b4q6MCRh-16" style="edgeStyle=orthogonalEdgeStyle;rounded=0;orthogonalLoop=1;jettySize=auto;html=1;exitX=0.5;exitY=1;exitDx=0;exitDy=0;exitPerimeter=0;entryX=0.5;entryY=0;entryDx=0;entryDy=0;" edge="1" parent="1" source="4VNX95Qdlnc_b4q6MCRh-1" target="4VNX95Qdlnc_b4q6MCRh-15">
          <mxGeometry relative="1" as="geometry" />
        </mxCell>
        <mxCell id="4VNX95Qdlnc_b4q6MCRh-1" value="开始" style="strokeWidth=2;html=1;shape=mxgraph.flowchart.terminator;whiteSpace=wrap;" vertex="1" parent="1">
          <mxGeometry x="361" y="20" width="86" height="40" as="geometry" />
        </mxCell>
        <mxCell id="4VNX95Qdlnc_b4q6MCRh-6" style="edgeStyle=orthogonalEdgeStyle;rounded=0;orthogonalLoop=1;jettySize=auto;html=1;exitX=0.5;exitY=1;exitDx=0;exitDy=0;entryX=0.5;entryY=0;entryDx=0;entryDy=0;" edge="1" parent="1" source="4VNX95Qdlnc_b4q6MCRh-2" target="4VNX95Qdlnc_b4q6MCRh-3">
          <mxGeometry relative="1" as="geometry" />
        </mxCell>
        <mxCell id="4VNX95Qdlnc_b4q6MCRh-2" value="连接设备" style="rounded=0;whiteSpace=wrap;html=1;" vertex="1" parent="1">
          <mxGeometry x="341" y="130" width="126" height="30" as="geometry" />
        </mxCell>
        <mxCell id="4VNX95Qdlnc_b4q6MCRh-8" style="edgeStyle=orthogonalEdgeStyle;rounded=0;orthogonalLoop=1;jettySize=auto;html=1;exitX=0.5;exitY=1;exitDx=0;exitDy=0;entryX=0.5;entryY=0;entryDx=0;entryDy=0;" edge="1" parent="1" source="4VNX95Qdlnc_b4q6MCRh-3" target="4VNX95Qdlnc_b4q6MCRh-4">
          <mxGeometry relative="1" as="geometry" />
        </mxCell>
        <mxCell id="4VNX95Qdlnc_b4q6MCRh-3" value="获取设备卡号" style="rounded=0;whiteSpace=wrap;html=1;" vertex="1" parent="1">
          <mxGeometry x="341" y="190" width="126" height="30" as="geometry" />
        </mxCell>
        <mxCell id="4VNX95Qdlnc_b4q6MCRh-11" style="edgeStyle=orthogonalEdgeStyle;rounded=0;orthogonalLoop=1;jettySize=auto;html=1;exitX=1;exitY=0.5;exitDx=0;exitDy=0;entryX=0;entryY=0.5;entryDx=0;entryDy=0;" edge="1" parent="1" source="4VNX95Qdlnc_b4q6MCRh-4" target="4VNX95Qdlnc_b4q6MCRh-10">
          <mxGeometry relative="1" as="geometry" />
        </mxCell>
        <mxCell id="4VNX95Qdlnc_b4q6MCRh-25" style="edgeStyle=orthogonalEdgeStyle;rounded=0;orthogonalLoop=1;jettySize=auto;html=1;exitX=0.5;exitY=1;exitDx=0;exitDy=0;entryX=0.5;entryY=0;entryDx=0;entryDy=0;" edge="1" parent="1" source="4VNX95Qdlnc_b4q6MCRh-4" target="4VNX95Qdlnc_b4q6MCRh-22">
          <mxGeometry relative="1" as="geometry" />
        </mxCell>
        <mxCell id="4VNX95Qdlnc_b4q6MCRh-4" value="获取卡号是否成功" style="rhombus;whiteSpace=wrap;html=1;" vertex="1" parent="1">
          <mxGeometry x="335" y="250" width="138" height="50" as="geometry" />
        </mxCell>
        <mxCell id="4VNX95Qdlnc_b4q6MCRh-18" style="edgeStyle=orthogonalEdgeStyle;rounded=0;orthogonalLoop=1;jettySize=auto;html=1;exitX=1;exitY=0.5;exitDx=0;exitDy=0;" edge="1" parent="1" source="4VNX95Qdlnc_b4q6MCRh-10">
          <mxGeometry relative="1" as="geometry">
            <mxPoint x="404" y="70" as="targetPoint" />
            <Array as="points">
              <mxPoint x="690" y="275" />
              <mxPoint x="690" y="70" />
              <mxPoint x="467" y="70" />
            </Array>
          </mxGeometry>
        </mxCell>
        <mxCell id="4VNX95Qdlnc_b4q6MCRh-20" style="edgeStyle=orthogonalEdgeStyle;rounded=0;orthogonalLoop=1;jettySize=auto;html=1;exitX=0.5;exitY=0;exitDx=0;exitDy=0;" edge="1" parent="1" source="4VNX95Qdlnc_b4q6MCRh-10">
          <mxGeometry relative="1" as="geometry">
            <mxPoint x="404" y="170" as="targetPoint" />
            <Array as="points">
              <mxPoint x="586" y="170" />
              <mxPoint x="467" y="170" />
            </Array>
          </mxGeometry>
        </mxCell>
        <mxCell id="4VNX95Qdlnc_b4q6MCRh-10" value="获取是否超时" style="rhombus;whiteSpace=wrap;html=1;" vertex="1" parent="1">
          <mxGeometry x="517" y="250" width="138" height="50" as="geometry" />
        </mxCell>
        <mxCell id="4VNX95Qdlnc_b4q6MCRh-12" value="否" style="text;html=1;align=center;verticalAlign=middle;resizable=0;points=[];autosize=1;strokeColor=none;" vertex="1" parent="1">
          <mxGeometry x="462" y="250" width="30" height="20" as="geometry" />
        </mxCell>
        <mxCell id="4VNX95Qdlnc_b4q6MCRh-17" style="edgeStyle=orthogonalEdgeStyle;rounded=0;orthogonalLoop=1;jettySize=auto;html=1;exitX=0.5;exitY=1;exitDx=0;exitDy=0;entryX=0.5;entryY=0;entryDx=0;entryDy=0;" edge="1" parent="1" source="4VNX95Qdlnc_b4q6MCRh-15" target="4VNX95Qdlnc_b4q6MCRh-2">
          <mxGeometry relative="1" as="geometry" />
        </mxCell>
        <mxCell id="4VNX95Qdlnc_b4q6MCRh-15" value="复位" style="rounded=0;whiteSpace=wrap;html=1;" vertex="1" parent="1">
          <mxGeometry x="341" y="80" width="126" height="30" as="geometry" />
        </mxCell>
        <mxCell id="4VNX95Qdlnc_b4q6MCRh-19" value="是" style="text;html=1;align=center;verticalAlign=middle;resizable=0;points=[];autosize=1;strokeColor=none;" vertex="1" parent="1">
          <mxGeometry x="655" y="250" width="30" height="20" as="geometry" />
        </mxCell>
        <mxCell id="4VNX95Qdlnc_b4q6MCRh-21" value="否" style="text;html=1;align=center;verticalAlign=middle;resizable=0;points=[];autosize=1;strokeColor=none;" vertex="1" parent="1">
          <mxGeometry x="585" y="230" width="30" height="20" as="geometry" />
        </mxCell>
        <mxCell id="4VNX95Qdlnc_b4q6MCRh-28" style="edgeStyle=orthogonalEdgeStyle;rounded=0;orthogonalLoop=1;jettySize=auto;html=1;exitX=0.5;exitY=1;exitDx=0;exitDy=0;entryX=0.5;entryY=0;entryDx=0;entryDy=0;" edge="1" parent="1" source="4VNX95Qdlnc_b4q6MCRh-22" target="4VNX95Qdlnc_b4q6MCRh-23">
          <mxGeometry relative="1" as="geometry" />
        </mxCell>
        <mxCell id="4VNX95Qdlnc_b4q6MCRh-22" value="查看信号强度" style="rounded=0;whiteSpace=wrap;html=1;" vertex="1" parent="1">
          <mxGeometry x="341" y="320" width="126" height="30" as="geometry" />
        </mxCell>
        <mxCell id="4VNX95Qdlnc_b4q6MCRh-29" style="edgeStyle=orthogonalEdgeStyle;rounded=0;orthogonalLoop=1;jettySize=auto;html=1;exitX=0.5;exitY=1;exitDx=0;exitDy=0;" edge="1" parent="1" source="4VNX95Qdlnc_b4q6MCRh-23" target="4VNX95Qdlnc_b4q6MCRh-26">
          <mxGeometry relative="1" as="geometry" />
        </mxCell>
        <mxCell id="4VNX95Qdlnc_b4q6MCRh-23" value="查询EPC网络注册状态" style="rounded=0;whiteSpace=wrap;html=1;" vertex="1" parent="1">
          <mxGeometry x="341" y="370" width="126" height="30" as="geometry" />
        </mxCell>
        <mxCell id="4VNX95Qdlnc_b4q6MCRh-40" style="edgeStyle=orthogonalEdgeStyle;rounded=0;orthogonalLoop=1;jettySize=auto;html=1;exitX=0.5;exitY=1;exitDx=0;exitDy=0;entryX=0.5;entryY=0;entryDx=0;entryDy=0;" edge="1" parent="1" source="4VNX95Qdlnc_b4q6MCRh-24" target="4VNX95Qdlnc_b4q6MCRh-39">
          <mxGeometry relative="1" as="geometry" />
        </mxCell>
        <mxCell id="4VNX95Qdlnc_b4q6MCRh-24" value="获取IP地址" style="rounded=0;whiteSpace=wrap;html=1;" vertex="1" parent="1">
          <mxGeometry x="341" y="490" width="126" height="30" as="geometry" />
        </mxCell>
        <mxCell id="4VNX95Qdlnc_b4q6MCRh-30" style="edgeStyle=orthogonalEdgeStyle;rounded=0;orthogonalLoop=1;jettySize=auto;html=1;exitX=0.5;exitY=1;exitDx=0;exitDy=0;entryX=0.5;entryY=0;entryDx=0;entryDy=0;" edge="1" parent="1" source="4VNX95Qdlnc_b4q6MCRh-26" target="4VNX95Qdlnc_b4q6MCRh-24">
          <mxGeometry relative="1" as="geometry" />
        </mxCell>
        <mxCell id="4VNX95Qdlnc_b4q6MCRh-33" style="edgeStyle=orthogonalEdgeStyle;rounded=0;orthogonalLoop=1;jettySize=auto;html=1;exitX=0;exitY=0.5;exitDx=0;exitDy=0;" edge="1" parent="1" source="4VNX95Qdlnc_b4q6MCRh-26">
          <mxGeometry relative="1" as="geometry">
            <mxPoint x="300" y="445" as="targetPoint" />
          </mxGeometry>
        </mxCell>
        <mxCell id="4VNX95Qdlnc_b4q6MCRh-26" value="注册状态是否正常" style="rhombus;whiteSpace=wrap;html=1;" vertex="1" parent="1">
          <mxGeometry x="335" y="420" width="138" height="50" as="geometry" />
        </mxCell>
        <mxCell id="4VNX95Qdlnc_b4q6MCRh-31" value="是" style="text;html=1;align=center;verticalAlign=middle;resizable=0;points=[];autosize=1;strokeColor=none;" vertex="1" parent="1">
          <mxGeometry x="405" y="470" width="30" height="20" as="geometry" />
        </mxCell>
        <mxCell id="4VNX95Qdlnc_b4q6MCRh-35" style="edgeStyle=orthogonalEdgeStyle;rounded=0;orthogonalLoop=1;jettySize=auto;html=1;exitX=0.5;exitY=0;exitDx=0;exitDy=0;" edge="1" parent="1" source="4VNX95Qdlnc_b4q6MCRh-32">
          <mxGeometry relative="1" as="geometry">
            <mxPoint x="404" y="360" as="targetPoint" />
            <Array as="points">
              <mxPoint x="229" y="360" />
              <mxPoint x="341" y="360" />
            </Array>
          </mxGeometry>
        </mxCell>
        <mxCell id="4VNX95Qdlnc_b4q6MCRh-37" style="edgeStyle=orthogonalEdgeStyle;rounded=0;orthogonalLoop=1;jettySize=auto;html=1;exitX=0;exitY=0.5;exitDx=0;exitDy=0;" edge="1" parent="1" source="4VNX95Qdlnc_b4q6MCRh-32">
          <mxGeometry relative="1" as="geometry">
            <mxPoint x="400" y="70" as="targetPoint" />
            <Array as="points">
              <mxPoint x="140" y="445" />
              <mxPoint x="140" y="70" />
            </Array>
          </mxGeometry>
        </mxCell>
        <mxCell id="4VNX95Qdlnc_b4q6MCRh-32" value="查询是否超时" style="rhombus;whiteSpace=wrap;html=1;" vertex="1" parent="1">
          <mxGeometry x="160" y="420" width="138" height="50" as="geometry" />
        </mxCell>
        <mxCell id="4VNX95Qdlnc_b4q6MCRh-34" value="否" style="text;html=1;align=center;verticalAlign=middle;resizable=0;points=[];autosize=1;strokeColor=none;" vertex="1" parent="1">
          <mxGeometry x="305" y="420" width="30" height="20" as="geometry" />
        </mxCell>
        <mxCell id="4VNX95Qdlnc_b4q6MCRh-36" value="否" style="text;html=1;align=center;verticalAlign=middle;resizable=0;points=[];autosize=1;strokeColor=none;" vertex="1" parent="1">
          <mxGeometry x="225" y="380" width="30" height="20" as="geometry" />
        </mxCell>
        <mxCell id="4VNX95Qdlnc_b4q6MCRh-38" value="是" style="text;html=1;align=center;verticalAlign=middle;resizable=0;points=[];autosize=1;strokeColor=none;" vertex="1" parent="1">
          <mxGeometry x="145" y="420" width="30" height="20" as="geometry" />
        </mxCell>
        <mxCell id="4VNX95Qdlnc_b4q6MCRh-42" style="edgeStyle=orthogonalEdgeStyle;rounded=0;orthogonalLoop=1;jettySize=auto;html=1;exitX=0.5;exitY=1;exitDx=0;exitDy=0;entryX=0.5;entryY=0;entryDx=0;entryDy=0;entryPerimeter=0;" edge="1" parent="1" source="4VNX95Qdlnc_b4q6MCRh-39" target="4VNX95Qdlnc_b4q6MCRh-41">
          <mxGeometry relative="1" as="geometry" />
        </mxCell>
        <mxCell id="4VNX95Qdlnc_b4q6MCRh-43" style="edgeStyle=orthogonalEdgeStyle;rounded=0;orthogonalLoop=1;jettySize=auto;html=1;exitX=1;exitY=0.5;exitDx=0;exitDy=0;" edge="1" parent="1" source="4VNX95Qdlnc_b4q6MCRh-39">
          <mxGeometry relative="1" as="geometry">
            <mxPoint x="404" y="310" as="targetPoint" />
            <Array as="points">
              <mxPoint x="530" y="565" />
              <mxPoint x="530" y="310" />
            </Array>
          </mxGeometry>
        </mxCell>
        <mxCell id="4VNX95Qdlnc_b4q6MCRh-39" value="IP是否获得" style="rhombus;whiteSpace=wrap;html=1;" vertex="1" parent="1">
          <mxGeometry x="335" y="540" width="138" height="50" as="geometry" />
        </mxCell>
        <mxCell id="4VNX95Qdlnc_b4q6MCRh-41" value="结束" style="strokeWidth=2;html=1;shape=mxgraph.flowchart.terminator;whiteSpace=wrap;" vertex="1" parent="1">
          <mxGeometry x="361" y="620" width="86" height="40" as="geometry" />
        </mxCell>
        <mxCell id="4VNX95Qdlnc_b4q6MCRh-44" value="否" style="text;html=1;align=center;verticalAlign=middle;resizable=0;points=[];autosize=1;strokeColor=none;" vertex="1" parent="1">
          <mxGeometry x="475" y="540" width="30" height="20" as="geometry" />
        </mxCell>
        <mxCell id="4VNX95Qdlnc_b4q6MCRh-45" value="是" style="text;html=1;align=center;verticalAlign=middle;resizable=0;points=[];autosize=1;strokeColor=none;" vertex="1" parent="1">
          <mxGeometry x="405" y="590" width="30" height="20" as="geometry" />
        </mxCell>
      </root>
    </mxGraphModel>
  </diagram>
</mxfile>
